<?xml version="1.0" encoding="UTF-8"?>
<svg id="Camada_1" data-name="Camada 1" xmlns="http://www.w3.org/2000/svg" viewBox="0 0 90.02 70.68">
  <defs>
    <style>
      .cls-1, .cls-2 {
        fill: #1d1d1b;
        stroke: #1d1d1b;
      }

      .cls-3 {
        fill: #ff9313;
        stroke: #ff9313;
      }

      .cls-3, .cls-2 {
        stroke-miterlimit: 10;
      }
    </style>
  </defs>
  <path class="cls-1" d="M47.3,23.75c-.75,.43-1.59,.64-2.51,.64-1.07,0-1.94-.35-2.6-1.04s-.99-1.61-.99-2.74,.37-2.12,1.1-2.86,1.67-1.12,2.79-1.12c.82,0,1.5,.13,2.06,.4v.97c-.61-.38-1.33-.58-2.16-.58s-1.53,.29-2.07,.87c-.54,.58-.81,1.33-.81,2.25s.25,1.7,.75,2.24c.5,.54,1.18,.81,2.03,.81,.59,0,1.09-.12,1.52-.35v-2.11h-1.65v-.8h2.53v3.4Z"/>
  <path class="cls-3" d="M49.61,48.97c-.29,0-.55-.04-.77-.12-.22-.08-.43-.19-.62-.34-.19-.15-.37-.32-.55-.53-.18-.21-.36-.45-.56-.71-.2,.22-.44,.43-.71,.64s-.57,.39-.89,.54c-.33,.16-.68,.28-1.07,.38-.39,.09-.81,.14-1.26,.14-.55,0-1.06-.07-1.52-.21-.46-.14-.85-.34-1.18-.61-.33-.27-.58-.6-.76-.99s-.27-.85-.27-1.36c0-.78,.22-1.45,.67-2,.44-.55,1.07-1.01,1.89-1.36-.15-.11-.31-.24-.46-.39-.15-.15-.29-.32-.41-.51-.12-.19-.22-.4-.29-.64-.07-.23-.11-.49-.11-.76,0-.4,.07-.76,.22-1.07,.15-.31,.35-.57,.6-.79s.56-.38,.9-.49c.35-.11,.72-.16,1.13-.16s.76,.06,1.09,.16c.33,.11,.61,.27,.85,.47s.42,.45,.56,.74c.13,.29,.2,.61,.2,.96,0,.61-.17,1.12-.52,1.53-.35,.41-.88,.75-1.58,1.04,.35,.14,.67,.31,.96,.51s.55,.42,.79,.67,.47,.51,.68,.79c.21,.28,.42,.57,.62,.87,.41-.58,.73-1.21,.94-1.91,.21-.69,.31-1.42,.31-2.18,0-.19-.01-.38-.03-.55-.02-.17-.06-.34-.1-.51h1.22c.04,.17,.06,.33,.07,.48s.02,.33,.03,.54c0,.46-.05,.93-.15,1.4-.1,.47-.23,.93-.39,1.37-.16,.44-.35,.86-.57,1.26-.22,.4-.45,.76-.69,1.1,.18,.25,.34,.46,.49,.64,.15,.18,.3,.33,.45,.46,.15,.12,.31,.21,.47,.27,.16,.06,.34,.09,.55,.09,.15,0,.31-.02,.47-.06,.16-.04,.32-.09,.49-.15v1.16c-.18,.07-.38,.13-.58,.16s-.4,.05-.59,.05Zm-6.43-1.09c.39,0,.75-.04,1.07-.13,.33-.08,.63-.2,.9-.34,.28-.14,.53-.3,.75-.49,.22-.19,.43-.38,.61-.59-.31-.49-.6-.9-.86-1.25s-.53-.64-.8-.89-.55-.46-.86-.64c-.3-.18-.66-.34-1.05-.5-.32,.13-.62,.27-.89,.43s-.5,.34-.7,.55-.35,.46-.46,.74c-.11,.28-.17,.61-.17,.99,0,.35,.06,.65,.19,.92s.3,.49,.52,.66c.22,.18,.48,.31,.78,.4,.3,.09,.62,.13,.96,.13Zm1.92-7.82c0-.26-.05-.47-.14-.65-.09-.18-.21-.33-.36-.44-.15-.12-.31-.2-.49-.26s-.36-.08-.53-.08c-.5,0-.9,.14-1.2,.41-.3,.27-.45,.64-.46,1.1,0,.21,.03,.41,.1,.59s.15,.36,.27,.51,.25,.3,.4,.42,.32,.23,.49,.31c.64-.22,1.12-.49,1.44-.79s.48-.68,.48-1.13Z"/>
  <path class="cls-1" d="M26.62,55.91h-2.5v7.51h-1.02v-7.51h-2.5v-.89h6.02v.89Z"/>
  <path class="cls-1" d="M65.27,63.27c-1.11,0-2-.38-2.67-1.15-.67-.77-1-1.77-1-3,0-1.32,.34-2.38,1.02-3.17,.68-.79,1.61-1.18,2.79-1.18,1.08,0,1.96,.38,2.62,1.15s.99,1.77,.99,3c0,1.34-.34,2.4-1.02,3.19-.68,.78-1.59,1.17-2.73,1.17Zm.07-7.63c-.82,0-1.49,.31-2.01,.94-.51,.62-.77,1.44-.77,2.46s.25,1.83,.75,2.45,1.16,.93,1.96,.93c.86,0,1.54-.29,2.04-.88,.5-.59,.74-1.41,.74-2.47s-.24-1.93-.72-2.52c-.48-.59-1.15-.89-1.99-.89Z"/>
  <path class="cls-2" d="M64.36,31.83H25.2L44.78,.93l19.58,30.9Zm-36.11-1.67H61.32L44.78,4.06,28.24,30.16Z"/>
  <path class="cls-2" d="M46.04,70.17H.91L26.77,29.36l19.27,40.81Zm-42.09-1.67H43.4L26.55,32.82,3.95,68.49Z"/>
  <path class="cls-2" d="M89.1,70.18H45.18L63.2,30.08l25.9,40.1Zm-41.33-1.67h38.26l-22.56-34.93-15.69,34.93Z"/>
</svg>